<svg width="512" height="512" viewBox="0 0 512 512" fill="none" xmlns="http://www.w3.org/2000/svg">
<rect width="512" height="512" fill="#CCCCCC"/>
<path d="M259.125 259.125V321.625C267.333 321.625 275.46 320.008 283.043 316.867C290.626 313.727 297.516 309.123 303.319 303.319C309.123 297.516 313.727 290.626 316.867 283.043C320.008 275.46 321.625 267.333 321.625 259.125H259.125Z" stroke="white" stroke-width="3" stroke-linejoin="round"/>
<path d="M240.375 309.125C229.545 307.322 219.421 302.57 211.114 295.391C202.808 288.211 196.64 278.881 193.288 268.426C189.937 257.971 189.53 246.794 192.114 236.123C194.699 225.453 200.173 215.7 207.936 207.936C215.7 200.173 225.453 194.699 236.123 192.114C246.794 189.53 257.971 189.937 268.426 193.288C278.881 196.64 288.211 202.808 295.391 211.114C302.57 219.421 307.322 229.545 309.125 240.375" stroke="white" stroke-width="3" stroke-linecap="square" stroke-linejoin="round"/>
<path d="M168.5 344L168.25 206.5L206.312 169H343.5L343.812 304.937L306.75 344H168.5Z" stroke="white" stroke-width="3" stroke-linejoin="round"/>
</svg>
