<svg width="512" height="512" viewBox="0 0 512 512" fill="none" xmlns="http://www.w3.org/2000/svg">
<rect width="512" height="512" fill="#CCCCCC"/>
<path d="M255.249 211.813C269.874 211.813 284.874 220.375 290.562 242.688C293.1 242.08 295.702 241.786 298.312 241.812C302.237 241.519 306.179 242.07 309.874 243.428C313.568 244.786 316.928 246.92 319.729 249.685C322.53 252.45 324.706 255.783 326.111 259.46C327.516 263.137 328.117 267.072 327.874 271C328.249 292.062 308.124 300.187 296.249 300.187H211.874C207.833 300.256 203.828 299.425 200.148 297.755C196.467 296.084 193.205 293.616 190.597 290.529C187.988 287.442 186.099 283.813 185.066 279.906C184.033 275.998 183.882 271.91 184.624 267.938C185.678 262.431 188.584 257.451 192.859 253.825C197.133 250.198 202.52 248.143 208.124 248C212.079 247.914 215.942 249.194 219.062 251.625C217.838 245.814 218.319 239.772 220.448 234.228C222.577 228.684 226.263 223.873 231.062 220.375C237.942 214.915 246.466 211.941 255.249 211.937V211.813ZM255.249 205.687C245.036 205.69 235.123 209.149 227.124 215.5C222.942 218.658 219.461 222.649 216.901 227.221C214.34 231.793 212.756 236.847 212.249 242.063C210.876 241.967 209.498 241.967 208.124 242.063C201.085 242.234 194.315 244.806 188.938 249.353C183.561 253.9 179.9 260.149 178.562 267.063C177.644 271.881 177.784 276.84 178.971 281.599C180.158 286.358 182.364 290.802 185.437 294.625C188.584 298.604 192.607 301.802 197.192 303.97C201.778 306.138 206.803 307.218 211.874 307.125H296.249C307.001 306.768 317.204 302.293 324.749 294.625C327.815 291.496 330.215 287.778 331.805 283.697C333.395 279.615 334.141 275.253 333.999 270.875C334.228 266.134 333.455 261.398 331.729 256.977C330.004 252.555 327.365 248.547 323.985 245.215C320.606 241.882 316.561 239.3 312.116 237.637C307.67 235.974 302.924 235.267 298.187 235.562C297.063 235.5 295.936 235.5 294.812 235.562C292.386 226.901 287.195 219.269 280.03 213.831C272.866 208.392 264.119 205.445 255.124 205.438L255.249 205.687Z" fill="white"/>
</svg>
