<svg width="512" height="512" viewBox="0 0 512 512" fill="none" xmlns="http://www.w3.org/2000/svg">
<rect width="512" height="512" fill="#CCCCCC"/>
<path d="M274.75 231.813C272.751 229.83 270.382 228.261 267.777 227.195C265.172 226.128 262.383 225.585 259.568 225.597C253.883 225.621 248.441 227.901 244.438 231.938C242.455 233.936 240.886 236.305 239.82 238.91C238.753 241.515 238.21 244.305 238.222 247.12C238.246 252.804 240.526 258.247 244.563 262.25C247.32 264.965 250.716 266.942 254.438 268C249.75 299.75 245.063 340.063 245.063 340.063H274.188C274.188 340.063 269.5 300 264.813 267.75C268.464 266.792 271.799 264.892 274.486 262.241C277.172 259.589 279.116 256.279 280.122 252.641C281.128 249.002 281.161 245.164 280.218 241.509C279.276 237.854 277.39 234.51 274.75 231.813Z" stroke="white" stroke-width="3" stroke-linejoin="round"/>
<path d="M308.062 178.875C317.032 187.706 324.131 198.253 328.937 209.888C333.742 221.522 336.156 234.004 336.033 246.591C335.911 259.178 333.255 271.611 328.224 283.15C323.193 294.688 315.89 305.095 306.75 313.75" stroke="white" stroke-width="3" stroke-miterlimit="10"/>
<path d="M287.938 199.75C294.029 205.853 298.847 213.105 302.113 221.085C305.379 229.066 307.028 237.615 306.964 246.237C306.901 254.86 305.125 263.384 301.741 271.315C298.356 279.245 293.431 286.425 287.25 292.437" stroke="white" stroke-width="3" stroke-miterlimit="10"/>
<path d="M211.187 178.875C202.202 187.69 195.083 198.224 190.256 209.848C185.429 221.473 182.993 233.951 183.092 246.538C183.191 259.125 185.824 271.563 190.833 283.11C195.843 294.658 203.126 305.078 212.25 313.75" stroke="white" stroke-width="3" stroke-miterlimit="10"/>
<path d="M231.313 199.75C225.18 205.853 220.324 213.118 217.03 221.119C213.736 229.12 212.07 237.697 212.128 246.35C212.186 255.002 213.968 263.556 217.369 271.512C220.77 279.469 225.723 286.667 231.938 292.687" stroke="white" stroke-width="3" stroke-miterlimit="10"/>
</svg>
