<svg width="512" height="512" viewBox="0 0 512 512" fill="none" xmlns="http://www.w3.org/2000/svg">
<rect width="512" height="512" fill="#CCCCCC"/>
<path d="M356 156H156V356H356V156Z" fill="#CCCCCC"/>
<path d="M217.437 245.625C230.381 245.625 240.875 233.956 240.875 219.562C240.875 205.169 230.381 193.5 217.437 193.5C204.493 193.5 194 205.169 194 219.562C194 233.956 204.493 245.625 217.437 245.625Z" stroke="white" stroke-width="3" stroke-linecap="round" stroke-linejoin="round"/>
<path d="M235.688 256C234.255 256.857 232.773 257.629 231.25 258.313C226.925 260.207 222.254 261.186 217.531 261.186C212.809 261.186 208.138 260.207 203.813 258.313V258.313C202.268 257.631 200.766 256.859 199.312 256C188.312 261.187 181 269.562 181 279.937V318.5H253.938V279.937C253.938 269.562 246.625 261.187 235.688 256Z" stroke="white" stroke-width="3" stroke-linecap="round" stroke-linejoin="round"/>
<path d="M268.5 243.5H331" stroke="white" stroke-width="3" stroke-linejoin="round"/>
<path d="M268.5 262.25H331" stroke="white" stroke-width="3" stroke-linejoin="round"/>
<path d="M268.5 281H331" stroke="white" stroke-width="3" stroke-linejoin="round"/>
</svg>
