<svg width="512" height="512" viewBox="0 0 512 512" fill="none" xmlns="http://www.w3.org/2000/svg">
<rect width="512" height="512" fill="#CCCCCC"/>
<path d="M312.25 218.5C315.958 218.5 319.584 217.4 322.667 215.34C325.75 213.28 328.154 210.351 329.573 206.925C330.992 203.499 331.363 199.729 330.64 196.092C329.916 192.455 328.13 189.114 325.508 186.492C322.886 183.87 319.545 182.084 315.908 181.36C312.271 180.637 308.501 181.008 305.075 182.427C301.649 183.846 298.72 186.25 296.66 189.333C294.6 192.416 293.5 196.042 293.5 199.75C293.5 204.723 295.475 209.492 298.992 213.008C302.508 216.525 307.277 218.5 312.25 218.5" stroke="white" stroke-width="3" stroke-linejoin="round"/>
<path d="M212.25 256C212.25 264.653 214.816 273.112 219.623 280.306C224.431 287.501 231.263 293.108 239.258 296.42C247.252 299.731 256.049 300.597 264.535 298.909C273.022 297.221 280.817 293.054 286.936 286.936C293.054 280.817 297.221 273.022 298.909 264.535C300.597 256.049 299.731 247.252 296.42 239.258C293.108 231.263 287.501 224.431 280.306 219.623C273.112 214.816 264.653 212.25 256 212.25C244.397 212.25 233.269 216.859 225.064 225.064C216.859 233.269 212.25 244.397 212.25 256" stroke="white" stroke-width="3" stroke-linejoin="round"/>
<path d="M181 199.75C181 203.458 182.1 207.084 184.16 210.167C186.22 213.25 189.149 215.654 192.575 217.073C196.001 218.492 199.771 218.863 203.408 218.14C207.045 217.416 210.386 215.63 213.008 213.008C215.63 210.386 217.416 207.045 218.14 203.408C218.863 199.771 218.492 196.001 217.073 192.575C215.654 189.149 213.25 186.22 210.167 184.16C207.084 182.1 203.458 181 199.75 181C194.777 181 190.008 182.975 186.492 186.492C182.975 190.008 181 194.777 181 199.75" stroke="white" stroke-width="3" stroke-linejoin="round"/>
<path d="M293.5 312.25C293.5 315.958 294.6 319.584 296.66 322.667C298.72 325.75 301.649 328.154 305.075 329.573C308.501 330.992 312.271 331.363 315.908 330.64C319.545 329.916 322.886 328.13 325.508 325.508C328.13 322.886 329.916 319.545 330.64 315.908C331.363 312.271 330.992 308.501 329.573 305.075C328.154 301.649 325.75 298.72 322.667 296.66C319.584 294.6 315.958 293.5 312.25 293.5C307.277 293.5 302.508 295.475 298.992 298.992C295.475 302.508 293.5 307.277 293.5 312.25" stroke="white" stroke-width="3" stroke-linejoin="round"/>
<path d="M181 312.25C181 315.958 182.1 319.584 184.16 322.667C186.22 325.75 189.149 328.154 192.575 329.573C196.001 330.992 199.771 331.363 203.408 330.64C207.045 329.916 210.386 328.13 213.008 325.508C215.63 322.886 217.416 319.545 218.14 315.908C218.863 312.271 218.492 308.501 217.073 305.075C215.654 301.649 213.25 298.72 210.167 296.66C207.084 294.6 203.458 293.5 199.75 293.5C194.777 293.5 190.008 295.475 186.492 298.992C182.975 302.508 181 307.277 181 312.25" stroke="white" stroke-width="3" stroke-linejoin="round"/>
</svg>
