<svg width="512" height="512" viewBox="0 0 512 512" fill="none" xmlns="http://www.w3.org/2000/svg">
<rect width="512" height="512" fill="#CCCCCC"/>
<path d="M293.5 265.375L312.25 246.625L293.5 227.875M256 246.625H309.125H256Z" stroke="white" stroke-width="3" stroke-linejoin="round"/>
<path d="M268.562 284.125H331.062V184.125H193.562V193.5" stroke="white" stroke-width="3" stroke-linejoin="round"/>
<path d="M217.375 255C230.319 255 240.812 243.331 240.812 228.938C240.812 214.544 230.319 202.875 217.375 202.875C204.431 202.875 193.937 214.544 193.937 228.938C193.937 243.331 204.431 255 217.375 255Z" stroke="white" stroke-width="3" stroke-linecap="round" stroke-linejoin="round"/>
<path d="M235.625 265.375C234.192 266.232 232.71 267.004 231.187 267.688C226.862 269.582 222.191 270.561 217.469 270.561C212.746 270.561 208.075 269.582 203.75 267.688V267.688C202.227 267.004 200.745 266.232 199.312 265.375V265.375C188.25 270.562 181 278.937 181 289.312V327.875H253.875V289.312C253.875 278.937 246.562 270.562 235.625 265.375Z" stroke="white" stroke-width="3" stroke-linecap="round" stroke-linejoin="round"/>
</svg>
